<mxfile host="app.diagrams.net" agent="Mozilla/5.0 (Macintosh; Intel Mac OS X 10_15_7) AppleWebKit/537.36 (KHTML, like Gecko) Chrome/131.0.0.0 Safari/537.36" version="24.8.6" pages="6">
  <diagram name="Page-1" id="cP73WE2FDrvu0ZDdazoa">
    <mxGraphModel dx="954" dy="1739" grid="1" gridSize="10" guides="1" tooltips="1" connect="1" arrows="1" fold="1" page="1" pageScale="1" pageWidth="850" pageHeight="1100" math="0" shadow="0">
      <root>
        <mxCell id="0" />
        <mxCell id="1" parent="0" />
        <mxCell id="BED43NTVJrrEg6uaU6Rn-1" value="" style="edgeStyle=orthogonalEdgeStyle;rounded=0;orthogonalLoop=1;jettySize=auto;html=1;" edge="1" parent="1" source="BED43NTVJrrEg6uaU6Rn-2" target="BED43NTVJrrEg6uaU6Rn-3">
          <mxGeometry relative="1" as="geometry" />
        </mxCell>
        <mxCell id="BED43NTVJrrEg6uaU6Rn-2" value="Admin" style="shape=umlActor;verticalLabelPosition=bottom;verticalAlign=top;html=1;outlineConnect=0;" vertex="1" parent="1">
          <mxGeometry x="160" y="150" width="30" height="60" as="geometry" />
        </mxCell>
        <mxCell id="BED43NTVJrrEg6uaU6Rn-3" value="Phim" style="ellipse;whiteSpace=wrap;html=1;verticalAlign=top;" vertex="1" parent="1">
          <mxGeometry x="330" y="150" width="120" height="60" as="geometry" />
        </mxCell>
        <mxCell id="BED43NTVJrrEg6uaU6Rn-4" value="Sửa phim" style="ellipse;whiteSpace=wrap;html=1;verticalAlign=top;" vertex="1" parent="1">
          <mxGeometry x="550" y="230" width="120" height="60" as="geometry" />
        </mxCell>
        <mxCell id="BED43NTVJrrEg6uaU6Rn-5" value="" style="endArrow=block;dashed=1;endFill=0;endSize=12;html=1;rounded=0;entryX=0;entryY=0.5;entryDx=0;entryDy=0;exitX=1;exitY=0.5;exitDx=0;exitDy=0;" edge="1" parent="1" source="BED43NTVJrrEg6uaU6Rn-3" target="BED43NTVJrrEg6uaU6Rn-4">
          <mxGeometry width="160" relative="1" as="geometry">
            <mxPoint x="340" y="290" as="sourcePoint" />
            <mxPoint x="500" y="290" as="targetPoint" />
          </mxGeometry>
        </mxCell>
        <mxCell id="BED43NTVJrrEg6uaU6Rn-6" value="Include" style="edgeLabel;html=1;align=center;verticalAlign=middle;resizable=0;points=[];" vertex="1" connectable="0" parent="BED43NTVJrrEg6uaU6Rn-5">
          <mxGeometry x="-0.3571" y="3" relative="1" as="geometry">
            <mxPoint x="14" y="3" as="offset" />
          </mxGeometry>
        </mxCell>
        <mxCell id="BED43NTVJrrEg6uaU6Rn-10" value="Thêm phim" style="ellipse;whiteSpace=wrap;html=1;verticalAlign=top;" vertex="1" parent="1">
          <mxGeometry x="440" y="-30" width="120" height="60" as="geometry" />
        </mxCell>
        <mxCell id="BED43NTVJrrEg6uaU6Rn-11" value="" style="endArrow=block;dashed=1;endFill=0;endSize=12;html=1;rounded=0;entryX=0;entryY=1;entryDx=0;entryDy=0;exitX=0.5;exitY=0;exitDx=0;exitDy=0;" edge="1" parent="1" source="BED43NTVJrrEg6uaU6Rn-3" target="BED43NTVJrrEg6uaU6Rn-10">
          <mxGeometry width="160" relative="1" as="geometry">
            <mxPoint x="460" y="190" as="sourcePoint" />
            <mxPoint x="510" y="300" as="targetPoint" />
          </mxGeometry>
        </mxCell>
        <mxCell id="BED43NTVJrrEg6uaU6Rn-12" value="Include" style="edgeLabel;html=1;align=center;verticalAlign=middle;resizable=0;points=[];" vertex="1" connectable="0" parent="BED43NTVJrrEg6uaU6Rn-11">
          <mxGeometry x="-0.3571" y="3" relative="1" as="geometry">
            <mxPoint x="10" y="-11" as="offset" />
          </mxGeometry>
        </mxCell>
        <mxCell id="BED43NTVJrrEg6uaU6Rn-13" value="Xoá phim" style="ellipse;whiteSpace=wrap;html=1;verticalAlign=top;" vertex="1" parent="1">
          <mxGeometry x="570" y="30" width="120" height="60" as="geometry" />
        </mxCell>
        <mxCell id="BED43NTVJrrEg6uaU6Rn-14" value="" style="endArrow=block;dashed=1;endFill=0;endSize=12;html=1;rounded=0;exitX=1;exitY=0;exitDx=0;exitDy=0;entryX=0;entryY=1;entryDx=0;entryDy=0;" edge="1" parent="1" source="BED43NTVJrrEg6uaU6Rn-3" target="BED43NTVJrrEg6uaU6Rn-13">
          <mxGeometry width="160" relative="1" as="geometry">
            <mxPoint x="460" y="190" as="sourcePoint" />
            <mxPoint x="640" y="190" as="targetPoint" />
          </mxGeometry>
        </mxCell>
        <mxCell id="BED43NTVJrrEg6uaU6Rn-15" value="Include" style="edgeLabel;html=1;align=center;verticalAlign=middle;resizable=0;points=[];" vertex="1" connectable="0" parent="BED43NTVJrrEg6uaU6Rn-14">
          <mxGeometry x="-0.3571" y="3" relative="1" as="geometry">
            <mxPoint x="14" y="3" as="offset" />
          </mxGeometry>
        </mxCell>
      </root>
    </mxGraphModel>
  </diagram>
  <diagram id="n7UVK_OHUE2FbKtyw-_1" name="Page-2">
    <mxGraphModel dx="954" dy="1739" grid="1" gridSize="10" guides="1" tooltips="1" connect="1" arrows="1" fold="1" page="1" pageScale="1" pageWidth="850" pageHeight="1100" math="0" shadow="0">
      <root>
        <mxCell id="0" />
        <mxCell id="1" parent="0" />
        <mxCell id="UgJw4B0j8kXGrb2Ke-W3-1" value="" style="edgeStyle=orthogonalEdgeStyle;rounded=0;orthogonalLoop=1;jettySize=auto;html=1;" edge="1" parent="1" source="UgJw4B0j8kXGrb2Ke-W3-2" target="UgJw4B0j8kXGrb2Ke-W3-3">
          <mxGeometry relative="1" as="geometry" />
        </mxCell>
        <mxCell id="UgJw4B0j8kXGrb2Ke-W3-2" value="Admin" style="shape=umlActor;verticalLabelPosition=bottom;verticalAlign=top;html=1;outlineConnect=0;" vertex="1" parent="1">
          <mxGeometry x="160" y="150" width="30" height="60" as="geometry" />
        </mxCell>
        <mxCell id="UgJw4B0j8kXGrb2Ke-W3-3" value="Thể loại" style="ellipse;whiteSpace=wrap;html=1;verticalAlign=top;" vertex="1" parent="1">
          <mxGeometry x="330" y="150" width="120" height="60" as="geometry" />
        </mxCell>
        <mxCell id="UgJw4B0j8kXGrb2Ke-W3-4" value="Sửa loại" style="ellipse;whiteSpace=wrap;html=1;verticalAlign=top;" vertex="1" parent="1">
          <mxGeometry x="550" y="230" width="120" height="60" as="geometry" />
        </mxCell>
        <mxCell id="UgJw4B0j8kXGrb2Ke-W3-5" value="" style="endArrow=block;dashed=1;endFill=0;endSize=12;html=1;rounded=0;entryX=0;entryY=0.5;entryDx=0;entryDy=0;exitX=1;exitY=0.5;exitDx=0;exitDy=0;" edge="1" parent="1" source="UgJw4B0j8kXGrb2Ke-W3-3" target="UgJw4B0j8kXGrb2Ke-W3-4">
          <mxGeometry width="160" relative="1" as="geometry">
            <mxPoint x="340" y="290" as="sourcePoint" />
            <mxPoint x="500" y="290" as="targetPoint" />
          </mxGeometry>
        </mxCell>
        <mxCell id="UgJw4B0j8kXGrb2Ke-W3-6" value="Include" style="edgeLabel;html=1;align=center;verticalAlign=middle;resizable=0;points=[];" vertex="1" connectable="0" parent="UgJw4B0j8kXGrb2Ke-W3-5">
          <mxGeometry x="-0.3571" y="3" relative="1" as="geometry">
            <mxPoint x="14" y="3" as="offset" />
          </mxGeometry>
        </mxCell>
        <mxCell id="UgJw4B0j8kXGrb2Ke-W3-7" value="Thêm loại" style="ellipse;whiteSpace=wrap;html=1;verticalAlign=top;" vertex="1" parent="1">
          <mxGeometry x="440" y="-30" width="120" height="60" as="geometry" />
        </mxCell>
        <mxCell id="UgJw4B0j8kXGrb2Ke-W3-8" value="" style="endArrow=block;dashed=1;endFill=0;endSize=12;html=1;rounded=0;entryX=0;entryY=1;entryDx=0;entryDy=0;exitX=0.5;exitY=0;exitDx=0;exitDy=0;" edge="1" parent="1" source="UgJw4B0j8kXGrb2Ke-W3-3" target="UgJw4B0j8kXGrb2Ke-W3-7">
          <mxGeometry width="160" relative="1" as="geometry">
            <mxPoint x="460" y="190" as="sourcePoint" />
            <mxPoint x="510" y="300" as="targetPoint" />
          </mxGeometry>
        </mxCell>
        <mxCell id="UgJw4B0j8kXGrb2Ke-W3-9" value="Include" style="edgeLabel;html=1;align=center;verticalAlign=middle;resizable=0;points=[];" vertex="1" connectable="0" parent="UgJw4B0j8kXGrb2Ke-W3-8">
          <mxGeometry x="-0.3571" y="3" relative="1" as="geometry">
            <mxPoint x="10" y="-11" as="offset" />
          </mxGeometry>
        </mxCell>
        <mxCell id="UgJw4B0j8kXGrb2Ke-W3-10" value="Xoá loại" style="ellipse;whiteSpace=wrap;html=1;verticalAlign=top;" vertex="1" parent="1">
          <mxGeometry x="570" y="30" width="120" height="60" as="geometry" />
        </mxCell>
        <mxCell id="UgJw4B0j8kXGrb2Ke-W3-11" value="" style="endArrow=block;dashed=1;endFill=0;endSize=12;html=1;rounded=0;exitX=1;exitY=0;exitDx=0;exitDy=0;entryX=0;entryY=1;entryDx=0;entryDy=0;" edge="1" parent="1" source="UgJw4B0j8kXGrb2Ke-W3-3" target="UgJw4B0j8kXGrb2Ke-W3-10">
          <mxGeometry width="160" relative="1" as="geometry">
            <mxPoint x="460" y="190" as="sourcePoint" />
            <mxPoint x="640" y="190" as="targetPoint" />
          </mxGeometry>
        </mxCell>
        <mxCell id="UgJw4B0j8kXGrb2Ke-W3-12" value="Include" style="edgeLabel;html=1;align=center;verticalAlign=middle;resizable=0;points=[];" vertex="1" connectable="0" parent="UgJw4B0j8kXGrb2Ke-W3-11">
          <mxGeometry x="-0.3571" y="3" relative="1" as="geometry">
            <mxPoint x="14" y="3" as="offset" />
          </mxGeometry>
        </mxCell>
      </root>
    </mxGraphModel>
  </diagram>
  <diagram id="QVQPa36EuD89tVXvdO7i" name="Page-3">
    <mxGraphModel dx="954" dy="639" grid="1" gridSize="10" guides="1" tooltips="1" connect="1" arrows="1" fold="1" page="1" pageScale="1" pageWidth="850" pageHeight="1100" math="0" shadow="0">
      <root>
        <mxCell id="0" />
        <mxCell id="1" parent="0" />
        <mxCell id="ZKxa_uVYJDRrEgIRBPlI-1" value="" style="shape=umlLifeline;participant=umlActor;perimeter=lifelinePerimeter;whiteSpace=wrap;html=1;container=1;collapsible=0;recursiveResize=0;verticalAlign=top;spacingTop=36;outlineConnect=0;" vertex="1" parent="1">
          <mxGeometry x="130" y="130" width="20" height="630" as="geometry" />
        </mxCell>
        <mxCell id="ZKxa_uVYJDRrEgIRBPlI-2" value=":Giao diện Web" style="shape=umlLifeline;perimeter=lifelinePerimeter;whiteSpace=wrap;html=1;container=1;collapsible=0;recursiveResize=0;outlineConnect=0;" vertex="1" parent="1">
          <mxGeometry x="238" y="130" width="100" height="630" as="geometry" />
        </mxCell>
        <mxCell id="ZKxa_uVYJDRrEgIRBPlI-3" value="Thông tin xuất kho&lt;br&gt;thành công" style="html=1;verticalAlign=bottom;endArrow=open;dashed=1;endSize=8;rounded=0;" edge="1" parent="ZKxa_uVYJDRrEgIRBPlI-2">
          <mxGeometry relative="1" as="geometry">
            <mxPoint x="49.5" y="610" as="sourcePoint" />
            <mxPoint x="-98" y="610" as="targetPoint" />
          </mxGeometry>
        </mxCell>
        <mxCell id="ZKxa_uVYJDRrEgIRBPlI-4" value=":Máy chủ" style="shape=umlLifeline;perimeter=lifelinePerimeter;whiteSpace=wrap;html=1;container=1;collapsible=0;recursiveResize=0;outlineConnect=0;" vertex="1" parent="1">
          <mxGeometry x="370" y="130" width="100" height="630" as="geometry" />
        </mxCell>
        <mxCell id="ZKxa_uVYJDRrEgIRBPlI-5" value="Kiểm tra thông tin,&lt;br&gt;thêm vào phiếu tạm" style="edgeStyle=orthogonalEdgeStyle;html=1;align=left;spacingLeft=2;endArrow=block;rounded=0;entryX=1;entryY=0;" edge="1" parent="ZKxa_uVYJDRrEgIRBPlI-4">
          <mxGeometry relative="1" as="geometry">
            <mxPoint x="50" y="330" as="sourcePoint" />
            <Array as="points">
              <mxPoint x="75" y="330" />
            </Array>
            <mxPoint x="50" y="350" as="targetPoint" />
          </mxGeometry>
        </mxCell>
        <mxCell id="ZKxa_uVYJDRrEgIRBPlI-6" value="Tạo phiếu tạm" style="edgeStyle=orthogonalEdgeStyle;html=1;align=left;spacingLeft=2;endArrow=block;rounded=0;entryX=1;entryY=0;" edge="1" parent="ZKxa_uVYJDRrEgIRBPlI-4">
          <mxGeometry relative="1" as="geometry">
            <mxPoint x="50" y="130" as="sourcePoint" />
            <Array as="points">
              <mxPoint x="75" y="130" />
            </Array>
            <mxPoint x="50" y="150" as="targetPoint" />
          </mxGeometry>
        </mxCell>
        <mxCell id="ZKxa_uVYJDRrEgIRBPlI-7" value="Thành công" style="html=1;verticalAlign=bottom;endArrow=open;dashed=1;endSize=8;rounded=0;" edge="1" parent="ZKxa_uVYJDRrEgIRBPlI-4">
          <mxGeometry relative="1" as="geometry">
            <mxPoint x="189.5" y="560" as="sourcePoint" />
            <mxPoint x="50" y="560" as="targetPoint" />
          </mxGeometry>
        </mxCell>
        <mxCell id="ZKxa_uVYJDRrEgIRBPlI-8" value="Lưu phiếu" style="html=1;verticalAlign=bottom;endArrow=block;rounded=0;" edge="1" parent="ZKxa_uVYJDRrEgIRBPlI-4">
          <mxGeometry width="80" relative="1" as="geometry">
            <mxPoint x="50" y="530" as="sourcePoint" />
            <mxPoint x="189.5" y="530" as="targetPoint" />
          </mxGeometry>
        </mxCell>
        <mxCell id="ZKxa_uVYJDRrEgIRBPlI-9" value="Nhân viên" style="text;html=1;align=center;verticalAlign=middle;resizable=0;points=[];autosize=1;strokeColor=none;fillColor=none;" vertex="1" parent="1">
          <mxGeometry x="100" y="170" width="70" height="20" as="geometry" />
        </mxCell>
        <mxCell id="ZKxa_uVYJDRrEgIRBPlI-10" value="Tạo phiếu xuất kho" style="html=1;verticalAlign=bottom;endArrow=block;rounded=0;exitX=0.55;exitY=0.173;exitDx=0;exitDy=0;exitPerimeter=0;" edge="1" parent="1">
          <mxGeometry relative="1" as="geometry">
            <mxPoint x="141" y="222.06999999999994" as="sourcePoint" />
            <mxPoint x="289.5" y="222.06999999999994" as="targetPoint" />
          </mxGeometry>
        </mxCell>
        <mxCell id="ZKxa_uVYJDRrEgIRBPlI-11" value="Giao diện xuất kho" style="html=1;verticalAlign=bottom;endArrow=open;dashed=1;endSize=8;rounded=0;" edge="1" parent="1">
          <mxGeometry relative="1" as="geometry">
            <mxPoint x="139.5" y="314.98" as="targetPoint" />
            <mxPoint x="290" y="315" as="sourcePoint" />
          </mxGeometry>
        </mxCell>
        <mxCell id="ZKxa_uVYJDRrEgIRBPlI-12" value=":Dữ liệu hóa đơn quản lý kho" style="shape=umlLifeline;perimeter=lifelinePerimeter;whiteSpace=wrap;html=1;container=1;collapsible=0;recursiveResize=0;outlineConnect=0;" vertex="1" parent="1">
          <mxGeometry x="510" y="130" width="100" height="630" as="geometry" />
        </mxCell>
        <mxCell id="ZKxa_uVYJDRrEgIRBPlI-13" value="Phiếu xuất kho" style="html=1;verticalAlign=bottom;endArrow=block;rounded=0;exitX=0.5;exitY=0.2;exitDx=0;exitDy=0;exitPerimeter=0;" edge="1" parent="1">
          <mxGeometry width="80" relative="1" as="geometry">
            <mxPoint x="290" y="240" as="sourcePoint" />
            <mxPoint x="419.5" y="240" as="targetPoint" />
          </mxGeometry>
        </mxCell>
        <mxCell id="ZKxa_uVYJDRrEgIRBPlI-14" value="Trả về giao diện&lt;br&gt;xuất kho" style="html=1;verticalAlign=bottom;endArrow=open;dashed=1;endSize=8;rounded=0;exitX=0.49;exitY=0.325;exitDx=0;exitDy=0;exitPerimeter=0;" edge="1" parent="1">
          <mxGeometry relative="1" as="geometry">
            <mxPoint x="289.5" y="305.75" as="targetPoint" />
            <mxPoint x="419" y="305.75" as="sourcePoint" />
          </mxGeometry>
        </mxCell>
        <mxCell id="ZKxa_uVYJDRrEgIRBPlI-15" value="Thêm phim" style="html=1;verticalAlign=bottom;endArrow=block;rounded=0;exitX=0.55;exitY=0.418;exitDx=0;exitDy=0;exitPerimeter=0;" edge="1" parent="1">
          <mxGeometry width="80" relative="1" as="geometry">
            <mxPoint x="141" y="377.62" as="sourcePoint" />
            <mxPoint x="289.5" y="377.62" as="targetPoint" />
          </mxGeometry>
        </mxCell>
        <mxCell id="ZKxa_uVYJDRrEgIRBPlI-16" value="Thêm phim" style="html=1;verticalAlign=bottom;endArrow=block;rounded=0;exitX=0.51;exitY=0.444;exitDx=0;exitDy=0;exitPerimeter=0;" edge="1" parent="1">
          <mxGeometry width="80" relative="1" as="geometry">
            <mxPoint x="291" y="399.88" as="sourcePoint" />
            <mxPoint x="419.5" y="399.88" as="targetPoint" />
          </mxGeometry>
        </mxCell>
        <mxCell id="ZKxa_uVYJDRrEgIRBPlI-17" value="Lấy thông tin phim" style="html=1;verticalAlign=bottom;endArrow=block;rounded=0;exitX=0.5;exitY=0.49;exitDx=0;exitDy=0;exitPerimeter=0;" edge="1" parent="1">
          <mxGeometry width="80" relative="1" as="geometry">
            <mxPoint x="420" y="410.9" as="sourcePoint" />
            <mxPoint x="689.5" y="410.9" as="targetPoint" />
          </mxGeometry>
        </mxCell>
        <mxCell id="ZKxa_uVYJDRrEgIRBPlI-18" value=":Dữ liệu tồn kho," style="shape=umlLifeline;perimeter=lifelinePerimeter;whiteSpace=wrap;html=1;container=1;collapsible=0;recursiveResize=0;outlineConnect=0;" vertex="1" parent="1">
          <mxGeometry x="640" y="130" width="100" height="630" as="geometry" />
        </mxCell>
        <mxCell id="ZKxa_uVYJDRrEgIRBPlI-19" value="Giao diện phiếu&lt;br&gt;&amp;nbsp;được cập nhật" style="html=1;verticalAlign=bottom;endArrow=open;dashed=1;endSize=8;rounded=0;exitX=0.5;exitY=0.682;exitDx=0;exitDy=0;exitPerimeter=0;" edge="1" parent="1">
          <mxGeometry relative="1" as="geometry">
            <mxPoint x="289.5" y="498.82000000000016" as="targetPoint" />
            <mxPoint x="420" y="498.82000000000016" as="sourcePoint" />
          </mxGeometry>
        </mxCell>
        <mxCell id="ZKxa_uVYJDRrEgIRBPlI-20" value="Phiếu được cập nhật" style="html=1;verticalAlign=bottom;endArrow=open;dashed=1;endSize=8;rounded=0;" edge="1" parent="1">
          <mxGeometry relative="1" as="geometry">
            <mxPoint x="140" y="515.0000000000002" as="targetPoint" />
            <mxPoint x="289.5" y="515.0000000000002" as="sourcePoint" />
          </mxGeometry>
        </mxCell>
        <mxCell id="ZKxa_uVYJDRrEgIRBPlI-21" value="While thêm &lt;br&gt;phim&lt;br&gt;Loop" style="text;html=1;align=center;verticalAlign=middle;resizable=0;points=[];autosize=1;strokeColor=none;fillColor=none;" vertex="1" parent="1">
          <mxGeometry x="65" y="336" width="80" height="50" as="geometry" />
        </mxCell>
        <mxCell id="ZKxa_uVYJDRrEgIRBPlI-22" value="End loop" style="text;html=1;align=center;verticalAlign=middle;resizable=0;points=[];autosize=1;strokeColor=none;fillColor=none;" vertex="1" parent="1">
          <mxGeometry x="75" y="494" width="60" height="20" as="geometry" />
        </mxCell>
        <mxCell id="ZKxa_uVYJDRrEgIRBPlI-23" value="Xác nhận xuất kho" style="html=1;verticalAlign=bottom;endArrow=block;rounded=0;" edge="1" parent="1">
          <mxGeometry width="80" relative="1" as="geometry">
            <mxPoint x="140" y="574" as="sourcePoint" />
            <mxPoint x="289.5" y="574" as="targetPoint" />
          </mxGeometry>
        </mxCell>
        <mxCell id="ZKxa_uVYJDRrEgIRBPlI-24" value="Xác nhận xuất kho" style="html=1;verticalAlign=bottom;endArrow=block;rounded=0;" edge="1" parent="1">
          <mxGeometry width="80" relative="1" as="geometry">
            <mxPoint x="292" y="585" as="sourcePoint" />
            <mxPoint x="419.5" y="584.96" as="targetPoint" />
          </mxGeometry>
        </mxCell>
        <mxCell id="ZKxa_uVYJDRrEgIRBPlI-25" value="Thông tin phim" style="html=1;verticalAlign=bottom;endArrow=open;dashed=1;endSize=8;rounded=0;exitX=0.52;exitY=0.645;exitDx=0;exitDy=0;exitPerimeter=0;" edge="1" parent="1">
          <mxGeometry relative="1" as="geometry">
            <mxPoint x="692.5" y="440" as="sourcePoint" />
            <mxPoint x="420" y="440" as="targetPoint" />
          </mxGeometry>
        </mxCell>
        <mxCell id="ZKxa_uVYJDRrEgIRBPlI-26" value="Giao diện xuất thành&lt;br&gt;công, In hóa đơn" style="html=1;verticalAlign=bottom;endArrow=open;dashed=1;endSize=8;rounded=0;" edge="1" parent="1">
          <mxGeometry relative="1" as="geometry">
            <mxPoint x="420" y="710" as="sourcePoint" />
            <mxPoint x="290" y="710" as="targetPoint" />
          </mxGeometry>
        </mxCell>
        <mxCell id="ZKxa_uVYJDRrEgIRBPlI-27" value="Cập nhật thông tin tồn kho" style="html=1;verticalAlign=bottom;endArrow=block;rounded=0;exitX=0.5;exitY=0.49;exitDx=0;exitDy=0;exitPerimeter=0;" edge="1" parent="1">
          <mxGeometry width="80" relative="1" as="geometry">
            <mxPoint x="420" y="600" as="sourcePoint" />
            <mxPoint x="689.5" y="600" as="targetPoint" />
          </mxGeometry>
        </mxCell>
        <mxCell id="ZKxa_uVYJDRrEgIRBPlI-28" value="Thành công" style="html=1;verticalAlign=bottom;endArrow=open;dashed=1;endSize=8;rounded=0;exitX=0.52;exitY=0.645;exitDx=0;exitDy=0;exitPerimeter=0;" edge="1" parent="1">
          <mxGeometry relative="1" as="geometry">
            <mxPoint x="692.5" y="629.1" as="sourcePoint" />
            <mxPoint x="420" y="629.1" as="targetPoint" />
          </mxGeometry>
        </mxCell>
      </root>
    </mxGraphModel>
  </diagram>
  <diagram id="t4hBW8uWXufAsotb6bdq" name="Page-4">
    <mxGraphModel dx="954" dy="639" grid="1" gridSize="10" guides="1" tooltips="1" connect="1" arrows="1" fold="1" page="1" pageScale="1" pageWidth="850" pageHeight="1100" math="0" shadow="0">
      <root>
        <mxCell id="0" />
        <mxCell id="1" parent="0" />
        <mxCell id="UATtmtbEPK_irKnXjQZw-1" value="" style="shape=umlLifeline;participant=umlActor;perimeter=lifelinePerimeter;whiteSpace=wrap;html=1;container=1;collapsible=0;recursiveResize=0;verticalAlign=top;spacingTop=36;outlineConnect=0;" vertex="1" parent="1">
          <mxGeometry x="130" y="130" width="20" height="630" as="geometry" />
        </mxCell>
        <mxCell id="UATtmtbEPK_irKnXjQZw-2" value=":Giao diện Web" style="shape=umlLifeline;perimeter=lifelinePerimeter;whiteSpace=wrap;html=1;container=1;collapsible=0;recursiveResize=0;outlineConnect=0;" vertex="1" parent="1">
          <mxGeometry x="238" y="130" width="100" height="630" as="geometry" />
        </mxCell>
        <mxCell id="UATtmtbEPK_irKnXjQZw-3" value="Thông tin xuất kho&lt;br&gt;thành công" style="html=1;verticalAlign=bottom;endArrow=open;dashed=1;endSize=8;rounded=0;" edge="1" parent="UATtmtbEPK_irKnXjQZw-2">
          <mxGeometry relative="1" as="geometry">
            <mxPoint x="49.5" y="610" as="sourcePoint" />
            <mxPoint x="-98" y="610" as="targetPoint" />
          </mxGeometry>
        </mxCell>
        <mxCell id="UATtmtbEPK_irKnXjQZw-4" value=":Máy chủ" style="shape=umlLifeline;perimeter=lifelinePerimeter;whiteSpace=wrap;html=1;container=1;collapsible=0;recursiveResize=0;outlineConnect=0;" vertex="1" parent="1">
          <mxGeometry x="370" y="130" width="100" height="630" as="geometry" />
        </mxCell>
        <mxCell id="UATtmtbEPK_irKnXjQZw-5" value="Kiểm tra thông tin,&lt;br&gt;thêm vào phiếu tạm" style="edgeStyle=orthogonalEdgeStyle;html=1;align=left;spacingLeft=2;endArrow=block;rounded=0;entryX=1;entryY=0;" edge="1" parent="UATtmtbEPK_irKnXjQZw-4">
          <mxGeometry relative="1" as="geometry">
            <mxPoint x="50" y="330" as="sourcePoint" />
            <Array as="points">
              <mxPoint x="75" y="330" />
            </Array>
            <mxPoint x="50" y="350" as="targetPoint" />
          </mxGeometry>
        </mxCell>
        <mxCell id="UATtmtbEPK_irKnXjQZw-6" value="Tạo phiếu tạm" style="edgeStyle=orthogonalEdgeStyle;html=1;align=left;spacingLeft=2;endArrow=block;rounded=0;entryX=1;entryY=0;" edge="1" parent="UATtmtbEPK_irKnXjQZw-4">
          <mxGeometry relative="1" as="geometry">
            <mxPoint x="50" y="130" as="sourcePoint" />
            <Array as="points">
              <mxPoint x="75" y="130" />
            </Array>
            <mxPoint x="50" y="150" as="targetPoint" />
          </mxGeometry>
        </mxCell>
        <mxCell id="UATtmtbEPK_irKnXjQZw-7" value="Thành công" style="html=1;verticalAlign=bottom;endArrow=open;dashed=1;endSize=8;rounded=0;" edge="1" parent="UATtmtbEPK_irKnXjQZw-4">
          <mxGeometry relative="1" as="geometry">
            <mxPoint x="189.5" y="560" as="sourcePoint" />
            <mxPoint x="50" y="560" as="targetPoint" />
          </mxGeometry>
        </mxCell>
        <mxCell id="UATtmtbEPK_irKnXjQZw-8" value="Lưu phiếu" style="html=1;verticalAlign=bottom;endArrow=block;rounded=0;" edge="1" parent="UATtmtbEPK_irKnXjQZw-4">
          <mxGeometry width="80" relative="1" as="geometry">
            <mxPoint x="50" y="530" as="sourcePoint" />
            <mxPoint x="189.5" y="530" as="targetPoint" />
          </mxGeometry>
        </mxCell>
        <mxCell id="UATtmtbEPK_irKnXjQZw-9" value="Nhân viên" style="text;html=1;align=center;verticalAlign=middle;resizable=0;points=[];autosize=1;strokeColor=none;fillColor=none;" vertex="1" parent="1">
          <mxGeometry x="100" y="170" width="70" height="20" as="geometry" />
        </mxCell>
        <mxCell id="UATtmtbEPK_irKnXjQZw-10" value="Tạo phiếu xuất kho" style="html=1;verticalAlign=bottom;endArrow=block;rounded=0;exitX=0.55;exitY=0.173;exitDx=0;exitDy=0;exitPerimeter=0;" edge="1" parent="1">
          <mxGeometry relative="1" as="geometry">
            <mxPoint x="141" y="222.06999999999994" as="sourcePoint" />
            <mxPoint x="289.5" y="222.06999999999994" as="targetPoint" />
          </mxGeometry>
        </mxCell>
        <mxCell id="UATtmtbEPK_irKnXjQZw-11" value="Giao diện xuất kho" style="html=1;verticalAlign=bottom;endArrow=open;dashed=1;endSize=8;rounded=0;" edge="1" parent="1">
          <mxGeometry relative="1" as="geometry">
            <mxPoint x="139.5" y="314.98" as="targetPoint" />
            <mxPoint x="290" y="315" as="sourcePoint" />
          </mxGeometry>
        </mxCell>
        <mxCell id="UATtmtbEPK_irKnXjQZw-12" value=":Dữ liệu hóa đơn quản lý kho" style="shape=umlLifeline;perimeter=lifelinePerimeter;whiteSpace=wrap;html=1;container=1;collapsible=0;recursiveResize=0;outlineConnect=0;" vertex="1" parent="1">
          <mxGeometry x="510" y="130" width="100" height="630" as="geometry" />
        </mxCell>
        <mxCell id="UATtmtbEPK_irKnXjQZw-13" value="Phiếu xuất kho" style="html=1;verticalAlign=bottom;endArrow=block;rounded=0;exitX=0.5;exitY=0.2;exitDx=0;exitDy=0;exitPerimeter=0;" edge="1" parent="1">
          <mxGeometry width="80" relative="1" as="geometry">
            <mxPoint x="290" y="240" as="sourcePoint" />
            <mxPoint x="419.5" y="240" as="targetPoint" />
          </mxGeometry>
        </mxCell>
        <mxCell id="UATtmtbEPK_irKnXjQZw-14" value="Trả về giao diện&lt;br&gt;xuất kho" style="html=1;verticalAlign=bottom;endArrow=open;dashed=1;endSize=8;rounded=0;exitX=0.49;exitY=0.325;exitDx=0;exitDy=0;exitPerimeter=0;" edge="1" parent="1">
          <mxGeometry relative="1" as="geometry">
            <mxPoint x="289.5" y="305.75" as="targetPoint" />
            <mxPoint x="419" y="305.75" as="sourcePoint" />
          </mxGeometry>
        </mxCell>
        <mxCell id="UATtmtbEPK_irKnXjQZw-15" value="Thêm thể loại" style="html=1;verticalAlign=bottom;endArrow=block;rounded=0;exitX=0.55;exitY=0.418;exitDx=0;exitDy=0;exitPerimeter=0;" edge="1" parent="1">
          <mxGeometry width="80" relative="1" as="geometry">
            <mxPoint x="141" y="377.62" as="sourcePoint" />
            <mxPoint x="289.5" y="377.62" as="targetPoint" />
          </mxGeometry>
        </mxCell>
        <mxCell id="UATtmtbEPK_irKnXjQZw-16" value="Thêm thể loại" style="html=1;verticalAlign=bottom;endArrow=block;rounded=0;exitX=0.51;exitY=0.444;exitDx=0;exitDy=0;exitPerimeter=0;" edge="1" parent="1">
          <mxGeometry width="80" relative="1" as="geometry">
            <mxPoint x="291" y="399.88" as="sourcePoint" />
            <mxPoint x="419.5" y="399.88" as="targetPoint" />
          </mxGeometry>
        </mxCell>
        <mxCell id="UATtmtbEPK_irKnXjQZw-17" value="Lấy thông tin thể loại" style="html=1;verticalAlign=bottom;endArrow=block;rounded=0;exitX=0.5;exitY=0.49;exitDx=0;exitDy=0;exitPerimeter=0;" edge="1" parent="1">
          <mxGeometry width="80" relative="1" as="geometry">
            <mxPoint x="420" y="410.9" as="sourcePoint" />
            <mxPoint x="689.5" y="410.9" as="targetPoint" />
          </mxGeometry>
        </mxCell>
        <mxCell id="UATtmtbEPK_irKnXjQZw-18" value=":Dữ liệu tồn kho," style="shape=umlLifeline;perimeter=lifelinePerimeter;whiteSpace=wrap;html=1;container=1;collapsible=0;recursiveResize=0;outlineConnect=0;" vertex="1" parent="1">
          <mxGeometry x="640" y="130" width="100" height="630" as="geometry" />
        </mxCell>
        <mxCell id="UATtmtbEPK_irKnXjQZw-19" value="Giao diện phiếu&lt;br&gt;&amp;nbsp;được cập nhật" style="html=1;verticalAlign=bottom;endArrow=open;dashed=1;endSize=8;rounded=0;exitX=0.5;exitY=0.682;exitDx=0;exitDy=0;exitPerimeter=0;" edge="1" parent="1">
          <mxGeometry relative="1" as="geometry">
            <mxPoint x="289.5" y="498.82000000000016" as="targetPoint" />
            <mxPoint x="420" y="498.82000000000016" as="sourcePoint" />
          </mxGeometry>
        </mxCell>
        <mxCell id="UATtmtbEPK_irKnXjQZw-20" value="Phiếu được cập nhật" style="html=1;verticalAlign=bottom;endArrow=open;dashed=1;endSize=8;rounded=0;" edge="1" parent="1">
          <mxGeometry relative="1" as="geometry">
            <mxPoint x="140" y="515.0000000000002" as="targetPoint" />
            <mxPoint x="289.5" y="515.0000000000002" as="sourcePoint" />
          </mxGeometry>
        </mxCell>
        <mxCell id="UATtmtbEPK_irKnXjQZw-21" value="While thêm &lt;br&gt;thể loại&lt;br&gt;Loop" style="text;html=1;align=center;verticalAlign=middle;resizable=0;points=[];autosize=1;strokeColor=none;fillColor=none;" vertex="1" parent="1">
          <mxGeometry x="65" y="336" width="80" height="50" as="geometry" />
        </mxCell>
        <mxCell id="UATtmtbEPK_irKnXjQZw-22" value="End loop" style="text;html=1;align=center;verticalAlign=middle;resizable=0;points=[];autosize=1;strokeColor=none;fillColor=none;" vertex="1" parent="1">
          <mxGeometry x="75" y="494" width="60" height="20" as="geometry" />
        </mxCell>
        <mxCell id="UATtmtbEPK_irKnXjQZw-23" value="Xác nhận xuất kho" style="html=1;verticalAlign=bottom;endArrow=block;rounded=0;" edge="1" parent="1">
          <mxGeometry width="80" relative="1" as="geometry">
            <mxPoint x="140" y="574" as="sourcePoint" />
            <mxPoint x="289.5" y="574" as="targetPoint" />
          </mxGeometry>
        </mxCell>
        <mxCell id="UATtmtbEPK_irKnXjQZw-24" value="Xác nhận xuất kho" style="html=1;verticalAlign=bottom;endArrow=block;rounded=0;" edge="1" parent="1">
          <mxGeometry width="80" relative="1" as="geometry">
            <mxPoint x="292" y="585" as="sourcePoint" />
            <mxPoint x="419.5" y="584.96" as="targetPoint" />
          </mxGeometry>
        </mxCell>
        <mxCell id="UATtmtbEPK_irKnXjQZw-25" value="Thông tin thể loại" style="html=1;verticalAlign=bottom;endArrow=open;dashed=1;endSize=8;rounded=0;exitX=0.52;exitY=0.645;exitDx=0;exitDy=0;exitPerimeter=0;" edge="1" parent="1">
          <mxGeometry relative="1" as="geometry">
            <mxPoint x="692.5" y="440" as="sourcePoint" />
            <mxPoint x="420" y="440" as="targetPoint" />
          </mxGeometry>
        </mxCell>
        <mxCell id="UATtmtbEPK_irKnXjQZw-26" value="Giao diện xuất thành&lt;br&gt;công, In hóa đơn" style="html=1;verticalAlign=bottom;endArrow=open;dashed=1;endSize=8;rounded=0;" edge="1" parent="1">
          <mxGeometry relative="1" as="geometry">
            <mxPoint x="420" y="710" as="sourcePoint" />
            <mxPoint x="290" y="710" as="targetPoint" />
          </mxGeometry>
        </mxCell>
        <mxCell id="UATtmtbEPK_irKnXjQZw-27" value="Cập nhật thông tin tồn kho" style="html=1;verticalAlign=bottom;endArrow=block;rounded=0;exitX=0.5;exitY=0.49;exitDx=0;exitDy=0;exitPerimeter=0;" edge="1" parent="1">
          <mxGeometry width="80" relative="1" as="geometry">
            <mxPoint x="420" y="600" as="sourcePoint" />
            <mxPoint x="689.5" y="600" as="targetPoint" />
          </mxGeometry>
        </mxCell>
        <mxCell id="UATtmtbEPK_irKnXjQZw-28" value="Thành công" style="html=1;verticalAlign=bottom;endArrow=open;dashed=1;endSize=8;rounded=0;exitX=0.52;exitY=0.645;exitDx=0;exitDy=0;exitPerimeter=0;" edge="1" parent="1">
          <mxGeometry relative="1" as="geometry">
            <mxPoint x="692.5" y="629.1" as="sourcePoint" />
            <mxPoint x="420" y="629.1" as="targetPoint" />
          </mxGeometry>
        </mxCell>
      </root>
    </mxGraphModel>
  </diagram>
  <diagram id="5XErU9HmaaKTH1Ps7sFa" name="Page-5">
    <mxGraphModel dx="954" dy="639" grid="1" gridSize="10" guides="1" tooltips="1" connect="1" arrows="1" fold="1" page="1" pageScale="1" pageWidth="850" pageHeight="1100" math="0" shadow="0">
      <root>
        <mxCell id="0" />
        <mxCell id="1" parent="0" />
        <mxCell id="I8XKI0t9l9zOfTsHGcH3-1" value="Phim" style="swimlane;fontStyle=0;childLayout=stackLayout;horizontal=1;startSize=30;horizontalStack=0;resizeParent=1;resizeParentMax=0;resizeLast=0;collapsible=1;marginBottom=0;whiteSpace=wrap;html=1;" vertex="1" parent="1">
          <mxGeometry x="50" y="210" width="140" height="210" as="geometry" />
        </mxCell>
        <mxCell id="I8XKI0t9l9zOfTsHGcH3-2" value="movie_id" style="text;strokeColor=none;fillColor=none;align=left;verticalAlign=middle;spacingLeft=4;spacingRight=4;overflow=hidden;points=[[0,0.5],[1,0.5]];portConstraint=eastwest;rotatable=0;whiteSpace=wrap;html=1;" vertex="1" parent="I8XKI0t9l9zOfTsHGcH3-1">
          <mxGeometry y="30" width="140" height="30" as="geometry" />
        </mxCell>
        <mxCell id="I8XKI0t9l9zOfTsHGcH3-3" value="movie_name" style="text;strokeColor=none;fillColor=none;align=left;verticalAlign=middle;spacingLeft=4;spacingRight=4;overflow=hidden;points=[[0,0.5],[1,0.5]];portConstraint=eastwest;rotatable=0;whiteSpace=wrap;html=1;" vertex="1" parent="I8XKI0t9l9zOfTsHGcH3-1">
          <mxGeometry y="60" width="140" height="30" as="geometry" />
        </mxCell>
        <mxCell id="I8XKI0t9l9zOfTsHGcH3-4" value="generId" style="text;strokeColor=none;fillColor=none;align=left;verticalAlign=middle;spacingLeft=4;spacingRight=4;overflow=hidden;points=[[0,0.5],[1,0.5]];portConstraint=eastwest;rotatable=0;whiteSpace=wrap;html=1;" vertex="1" parent="I8XKI0t9l9zOfTsHGcH3-1">
          <mxGeometry y="90" width="140" height="30" as="geometry" />
        </mxCell>
        <mxCell id="I8XKI0t9l9zOfTsHGcH3-42" value="date" style="text;strokeColor=none;fillColor=none;align=left;verticalAlign=middle;spacingLeft=4;spacingRight=4;overflow=hidden;points=[[0,0.5],[1,0.5]];portConstraint=eastwest;rotatable=0;whiteSpace=wrap;html=1;" vertex="1" parent="I8XKI0t9l9zOfTsHGcH3-1">
          <mxGeometry y="120" width="140" height="30" as="geometry" />
        </mxCell>
        <mxCell id="I8XKI0t9l9zOfTsHGcH3-45" value="description" style="text;strokeColor=none;fillColor=none;align=left;verticalAlign=middle;spacingLeft=4;spacingRight=4;overflow=hidden;points=[[0,0.5],[1,0.5]];portConstraint=eastwest;rotatable=0;whiteSpace=wrap;html=1;" vertex="1" parent="I8XKI0t9l9zOfTsHGcH3-1">
          <mxGeometry y="150" width="140" height="30" as="geometry" />
        </mxCell>
        <mxCell id="I8XKI0t9l9zOfTsHGcH3-5" value="posterImage" style="text;strokeColor=none;fillColor=none;align=left;verticalAlign=middle;spacingLeft=4;spacingRight=4;overflow=hidden;points=[[0,0.5],[1,0.5]];portConstraint=eastwest;rotatable=0;whiteSpace=wrap;html=1;" vertex="1" parent="I8XKI0t9l9zOfTsHGcH3-1">
          <mxGeometry y="180" width="140" height="30" as="geometry" />
        </mxCell>
        <mxCell id="I8XKI0t9l9zOfTsHGcH3-35" value="Thể loại" style="swimlane;fontStyle=0;childLayout=stackLayout;horizontal=1;startSize=30;horizontalStack=0;resizeParent=1;resizeParentMax=0;resizeLast=0;collapsible=1;marginBottom=0;whiteSpace=wrap;html=1;" vertex="1" parent="1">
          <mxGeometry x="410" y="220" width="140" height="150" as="geometry" />
        </mxCell>
        <mxCell id="I8XKI0t9l9zOfTsHGcH3-36" value="gener_id" style="text;strokeColor=none;fillColor=none;align=left;verticalAlign=middle;spacingLeft=4;spacingRight=4;overflow=hidden;points=[[0,0.5],[1,0.5]];portConstraint=eastwest;rotatable=0;whiteSpace=wrap;html=1;" vertex="1" parent="I8XKI0t9l9zOfTsHGcH3-35">
          <mxGeometry y="30" width="140" height="30" as="geometry" />
        </mxCell>
        <mxCell id="I8XKI0t9l9zOfTsHGcH3-37" value="gener_name" style="text;strokeColor=none;fillColor=none;align=left;verticalAlign=middle;spacingLeft=4;spacingRight=4;overflow=hidden;points=[[0,0.5],[1,0.5]];portConstraint=eastwest;rotatable=0;whiteSpace=wrap;html=1;" vertex="1" parent="I8XKI0t9l9zOfTsHGcH3-35">
          <mxGeometry y="60" width="140" height="30" as="geometry" />
        </mxCell>
        <mxCell id="I8XKI0t9l9zOfTsHGcH3-38" value="gener" style="text;strokeColor=none;fillColor=none;align=left;verticalAlign=middle;spacingLeft=4;spacingRight=4;overflow=hidden;points=[[0,0.5],[1,0.5]];portConstraint=eastwest;rotatable=0;whiteSpace=wrap;html=1;" vertex="1" parent="I8XKI0t9l9zOfTsHGcH3-35">
          <mxGeometry y="90" width="140" height="30" as="geometry" />
        </mxCell>
        <mxCell id="I8XKI0t9l9zOfTsHGcH3-39" value="date" style="text;strokeColor=none;fillColor=none;align=left;verticalAlign=middle;spacingLeft=4;spacingRight=4;overflow=hidden;points=[[0,0.5],[1,0.5]];portConstraint=eastwest;rotatable=0;whiteSpace=wrap;html=1;" vertex="1" parent="I8XKI0t9l9zOfTsHGcH3-35">
          <mxGeometry y="120" width="140" height="30" as="geometry" />
        </mxCell>
        <mxCell id="I8XKI0t9l9zOfTsHGcH3-40" style="edgeStyle=orthogonalEdgeStyle;rounded=0;orthogonalLoop=1;jettySize=auto;html=1;entryX=1;entryY=0.5;entryDx=0;entryDy=0;" edge="1" parent="1" source="I8XKI0t9l9zOfTsHGcH3-36" target="I8XKI0t9l9zOfTsHGcH3-4">
          <mxGeometry relative="1" as="geometry" />
        </mxCell>
        <mxCell id="I8XKI0t9l9zOfTsHGcH3-46" value="1" style="edgeLabel;html=1;align=center;verticalAlign=middle;resizable=0;points=[];" vertex="1" connectable="0" parent="I8XKI0t9l9zOfTsHGcH3-40">
          <mxGeometry x="-0.8667" y="1" relative="1" as="geometry">
            <mxPoint as="offset" />
          </mxGeometry>
        </mxCell>
        <mxCell id="I8XKI0t9l9zOfTsHGcH3-47" value="1" style="edgeLabel;html=1;align=center;verticalAlign=middle;resizable=0;points=[];" vertex="1" connectable="0" parent="I8XKI0t9l9zOfTsHGcH3-40">
          <mxGeometry x="0.8" y="-1" relative="1" as="geometry">
            <mxPoint as="offset" />
          </mxGeometry>
        </mxCell>
      </root>
    </mxGraphModel>
  </diagram>
  <diagram id="LaUIRUFIQ6ZZjGy6Djsa" name="Page-6">
    <mxGraphModel dx="1804" dy="639" grid="1" gridSize="10" guides="1" tooltips="1" connect="1" arrows="1" fold="1" page="1" pageScale="1" pageWidth="850" pageHeight="1100" math="0" shadow="0">
      <root>
        <mxCell id="0" />
        <mxCell id="1" parent="0" />
        <mxCell id="eGoGDNnopr84k17zEGbT-1" value="Phim" style="rounded=0;whiteSpace=wrap;html=1;" vertex="1" parent="1">
          <mxGeometry x="-20" y="300" width="120" height="60" as="geometry" />
        </mxCell>
        <mxCell id="fhxm94yTLzNLdn0NKIdy-2" value="movie_name" style="ellipse;whiteSpace=wrap;html=1;" vertex="1" parent="1">
          <mxGeometry x="-190" y="160" width="120" height="80" as="geometry" />
        </mxCell>
        <mxCell id="fhxm94yTLzNLdn0NKIdy-3" value="movie_id" style="ellipse;whiteSpace=wrap;html=1;" vertex="1" parent="1">
          <mxGeometry x="-220" y="330" width="120" height="80" as="geometry" />
        </mxCell>
        <mxCell id="fhxm94yTLzNLdn0NKIdy-4" value="Date" style="ellipse;whiteSpace=wrap;html=1;" vertex="1" parent="1">
          <mxGeometry x="150" y="150" width="120" height="80" as="geometry" />
        </mxCell>
        <mxCell id="fhxm94yTLzNLdn0NKIdy-5" value="&lt;span style=&quot;text-align: left;&quot;&gt;description&lt;/span&gt;" style="ellipse;whiteSpace=wrap;html=1;" vertex="1" parent="1">
          <mxGeometry x="10" y="140" width="120" height="80" as="geometry" />
        </mxCell>
        <mxCell id="fhxm94yTLzNLdn0NKIdy-6" value="&lt;span style=&quot;text-align: left;&quot;&gt;generId&lt;/span&gt;" style="ellipse;whiteSpace=wrap;html=1;" vertex="1" parent="1">
          <mxGeometry x="290" y="190" width="120" height="80" as="geometry" />
        </mxCell>
        <mxCell id="fhxm94yTLzNLdn0NKIdy-8" value="" style="endArrow=none;html=1;rounded=0;" edge="1" parent="1" source="eGoGDNnopr84k17zEGbT-1" target="fhxm94yTLzNLdn0NKIdy-3">
          <mxGeometry width="50" height="50" relative="1" as="geometry">
            <mxPoint x="190" y="360" as="sourcePoint" />
            <mxPoint x="240" y="310" as="targetPoint" />
          </mxGeometry>
        </mxCell>
        <mxCell id="fhxm94yTLzNLdn0NKIdy-10" value="" style="endArrow=none;html=1;rounded=0;exitX=0.25;exitY=0;exitDx=0;exitDy=0;" edge="1" parent="1" source="eGoGDNnopr84k17zEGbT-1" target="fhxm94yTLzNLdn0NKIdy-2">
          <mxGeometry width="50" height="50" relative="1" as="geometry">
            <mxPoint x="-10" y="352" as="sourcePoint" />
            <mxPoint x="-93" y="369" as="targetPoint" />
          </mxGeometry>
        </mxCell>
        <mxCell id="Rm3sLC6QQkn3FAuWN4AD-1" value="" style="endArrow=none;html=1;rounded=0;entryX=0.5;entryY=1;entryDx=0;entryDy=0;" edge="1" parent="1" source="eGoGDNnopr84k17zEGbT-1" target="fhxm94yTLzNLdn0NKIdy-5">
          <mxGeometry width="50" height="50" relative="1" as="geometry">
            <mxPoint x="190" y="360" as="sourcePoint" />
            <mxPoint x="240" y="310" as="targetPoint" />
          </mxGeometry>
        </mxCell>
        <mxCell id="mYDAXukjGZbcMp7LvDwU-2" value="" style="endArrow=none;html=1;rounded=0;entryX=0.292;entryY=0.95;entryDx=0;entryDy=0;entryPerimeter=0;exitX=1;exitY=0;exitDx=0;exitDy=0;" edge="1" parent="1" source="eGoGDNnopr84k17zEGbT-1" target="fhxm94yTLzNLdn0NKIdy-4">
          <mxGeometry width="50" height="50" relative="1" as="geometry">
            <mxPoint x="58" y="310" as="sourcePoint" />
            <mxPoint x="80" y="230" as="targetPoint" />
          </mxGeometry>
        </mxCell>
        <mxCell id="Pktgsu1ogTFTyu-GeCAB-1" value="&lt;span style=&quot;text-align: left;&quot;&gt;posterImage&lt;/span&gt;" style="ellipse;whiteSpace=wrap;html=1;" vertex="1" parent="1">
          <mxGeometry x="190" y="330" width="120" height="80" as="geometry" />
        </mxCell>
        <mxCell id="teFIMxrwgXvEuHJS69xt-1" value="" style="endArrow=none;html=1;rounded=0;exitX=0.983;exitY=0.383;exitDx=0;exitDy=0;exitPerimeter=0;" edge="1" parent="1" source="eGoGDNnopr84k17zEGbT-1" target="fhxm94yTLzNLdn0NKIdy-6">
          <mxGeometry width="50" height="50" relative="1" as="geometry">
            <mxPoint x="110" y="310" as="sourcePoint" />
            <mxPoint x="195" y="236" as="targetPoint" />
          </mxGeometry>
        </mxCell>
        <mxCell id="teFIMxrwgXvEuHJS69xt-2" value="" style="endArrow=none;html=1;rounded=0;exitX=1;exitY=0.75;exitDx=0;exitDy=0;" edge="1" parent="1" source="eGoGDNnopr84k17zEGbT-1" target="Pktgsu1ogTFTyu-GeCAB-1">
          <mxGeometry width="50" height="50" relative="1" as="geometry">
            <mxPoint x="108" y="333" as="sourcePoint" />
            <mxPoint x="307" y="259" as="targetPoint" />
          </mxGeometry>
        </mxCell>
        <mxCell id="teFIMxrwgXvEuHJS69xt-3" value="Thể loại" style="rounded=0;whiteSpace=wrap;html=1;" vertex="1" parent="1">
          <mxGeometry x="490" y="310" width="120" height="60" as="geometry" />
        </mxCell>
        <mxCell id="teFIMxrwgXvEuHJS69xt-4" value="" style="endArrow=none;html=1;rounded=0;entryX=0.7;entryY=0.9;entryDx=0;entryDy=0;entryPerimeter=0;" edge="1" parent="1" source="teFIMxrwgXvEuHJS69xt-3" target="fhxm94yTLzNLdn0NKIdy-6">
          <mxGeometry width="50" height="50" relative="1" as="geometry">
            <mxPoint x="320" y="360" as="sourcePoint" />
            <mxPoint x="370" y="310" as="targetPoint" />
          </mxGeometry>
        </mxCell>
        <mxCell id="teFIMxrwgXvEuHJS69xt-5" value="Gender_name" style="ellipse;whiteSpace=wrap;html=1;" vertex="1" parent="1">
          <mxGeometry x="620" y="190" width="120" height="80" as="geometry" />
        </mxCell>
        <mxCell id="teFIMxrwgXvEuHJS69xt-6" value="" style="endArrow=none;html=1;rounded=0;" edge="1" parent="1" source="teFIMxrwgXvEuHJS69xt-3" target="teFIMxrwgXvEuHJS69xt-5">
          <mxGeometry width="50" height="50" relative="1" as="geometry">
            <mxPoint x="320" y="360" as="sourcePoint" />
            <mxPoint x="370" y="310" as="targetPoint" />
          </mxGeometry>
        </mxCell>
      </root>
    </mxGraphModel>
  </diagram>
</mxfile>
